# xmcd
#
# Track frame offsets:
#  150
#  14897
#  29025
#  39774
#  53350
#  67841
#  83768
#  100486
#  111395
#  125760
#  143407
#  160958
#  176642
#  191411
#  205567
#
# Disc length: 2959 seconds
#
# Revision: 0
# Processed by: cddbd v1.5.2PL0 Copyright (c) Steve Scherf et al.
# Submitted via: AltoMP3_Maker 3.0
#
DISCID=c70b8d0f
DTITLE=Superstars Of Country - Party Time - Disc 1
DYEAR=1900
DGENRE=
TTITLE0=Eddie Rabbitt - Drivin' My Life Away
TTITLE1=The Bellamy Brothers - If I Said You Have A Beautiful Body Would You Hold It Against Me?
TTITLE2=Emmylou Harris - Mister Sandman
TTITLE3=John Anderson - Swingin'
TTITLE4=The Judds - Mama He's Crazy
TTITLE5=T. G. Sheppard - Party Time
TTITLE6=Johnny Lee - Lookin' For Love
TTITLE7=Sammi Smith - Help Me Make It Through The Night
TTITLE8=Eddie Rabbitt - I Love A Rainy Night
TTITLE9=Emmylou Harris - Together Again
TTITLE10=Linda Ronstadt - Blue Bayou
TTITLE11=Billie Jo Spears - Blanket On The Ground
TTITLE12=Ray Stevens - The Streak
TTITLE13=Randy Travis - On The Other Hand
TTITLE14=Debby Boone - You Light Up My Life
EXTD=
EXTT0=
EXTT1=
EXTT2=
EXTT3=
EXTT4=
EXTT5=
EXTT6=
EXTT7=
EXTT8=
EXTT9=
EXTT10=
EXTT11=
EXTT12=
EXTT13=
EXTT14=
PLAYORDER=
